<?xml version="1.0" encoding="utf-8"?>
<!-- Generator: Adobe Illustrator 26.5.0, SVG Export Plug-In . SVG Version: 6.00 Build 0)  -->
<svg version="1.1" id="Capa_1" xmlns:svgjs="http://svgjs.com/svgjs"
	 xmlns="http://www.w3.org/2000/svg" xmlns:xlink="http://www.w3.org/1999/xlink" x="0px" y="0px" viewBox="0 0 976.5 528.2"
	 style="enable-background:new 0 0 976.5 528.2;" xml:space="preserve">
<style type="text/css">
	.st0{fill:#3F3E3D;}
	.st1{fill:#FFFFFF;}
	.st2{fill:#FFC930;}
	.st3{fill:#FFA0DC;}
	.st4{fill:#61CCFF;}
	.st5{fill:#0B4F6F;}
	.st6{clip-path:url(#SVGID_00000157298402549999747370000001228964440125877431_);}
	.st7{fill:#231F20;}
	.st8{fill:#CECECE;}
	.st9{opacity:0.2;fill:#939393;enable-background:new    ;}
	.st10{fill:none;stroke:#939393;stroke-width:4;stroke-linecap:round;stroke-linejoin:round;}
	.st11{clip-path:url(#SVGID_00000075159296314314182560000018421443052571136190_);}
	.st12{fill:#A15842;}
	.st13{fill:#FF4F32;}
	.st14{opacity:0.2;fill:#FB310F;enable-background:new    ;}
	.st15{fill:none;stroke:#FB310F;stroke-width:4;stroke-linecap:round;stroke-linejoin:round;}
	.st16{opacity:0.2;fill:#282625;enable-background:new    ;}
	.st17{fill:none;stroke:#282625;stroke-width:4;stroke-linecap:round;stroke-linejoin:round;}
	.st18{opacity:0.2;enable-background:new    ;}
	.st19{fill:none;stroke:#3D4041;stroke-width:4;stroke-linecap:round;stroke-linejoin:round;}
	.st20{fill:none;stroke:#000000;stroke-width:4;stroke-linecap:round;stroke-linejoin:round;}
	.st21{fill:none;stroke:#0E0D0D;stroke-width:4;stroke-linecap:round;stroke-linejoin:round;}
	.st22{fill:#3C2C5B;}
</style>
<g>
	<path class="st0" d="M163,266.4c0.1,0,0.2,0.1,0.2,0.1l9.3,10.5v0.1c-0.9,0.4-11.8,5.1-11.8,5.1l-13.1,0.1c-0.2,0-0.2-0.1-0.2-0.2
		l4.2-13.1c0-0.1,0-0.2,0.1-0.2l5-4.5L163,266.4z"/>
	<path class="st1" d="M180.6,288l12.7,3.5l12.7-1.8c0.1,0,0.1,0,0.1-0.1l-6-12.2l-6-1.5l-6,0.8L180.6,288
		C180.4,288,180.4,288,180.6,288z"/>
	<path d="M216.6,317.4c0-0.1,0-0.2-0.1-0.2h-73.4c-0.1,0-0.2,0.1-0.1,0.2l17.8,20.8l39.1-0.7L216.6,317.4z"/>
	<path class="st2" d="M166.2,373.5L147.3,282c0,0,0-0.1,0.1-0.1l24.9-5.1c0,0,0.1,0,0.1,0.1l18.9,91.4L166.2,373.5z"/>
	<path class="st2" d="M155.3,257.6l7.7,8.7c0,0.1,0,0.2-0.1,0.2l-11.4,2.4c-0.1,0-0.1,0-0.1-0.1l3.7-11.1
		C155.2,257.6,155.3,257.6,155.3,257.6z"/>
	<path class="st3" d="M206,289.7l-6.1,93.2l-25.6-1.6l6.1-93.2c0-0.1,0-0.1,0.1-0.1L206,289.7C206,289.7,206,289.7,206,289.7z"/>
	<path class="st3" d="M194.6,266.7l-6.6,9.9l11.9,0.8l-5.1-10.6C194.7,266.7,194.6,266.7,194.6,266.7z"/>
	<path class="st4" d="M216.4,317.4c0.1,0,0.2,0,0.2,0.1l-5,45.4l-8.7,27.9l-46.8,0.4l-8.2-27.7l-5.1-46.1c0-0.1,0.1-0.2,0.2-0.1
		c10.5,8.3,23.4,12.8,36.7,12.7C193,330.1,206,325.7,216.4,317.4z"/>
	<path class="st5" d="M208.1,396h-56.6l-3.5-32.3v-0.1c18.2-15.9,45.1-16.3,63.6-0.7L208.1,396z"/>
</g>
<g>
	<defs>
		<rect id="SVGID_1_" x="227.5" y="291.5" width="350.8" height="236.7"/>
	</defs>
	<clipPath id="SVGID_00000142140580525806836290000002188132791056655260_">
		<use xlink:href="#SVGID_1_"  style="overflow:visible;"/>
	</clipPath>
	<g style="clip-path:url(#SVGID_00000142140580525806836290000002188132791056655260_);">
		<path class="st7" d="M432.1,742.1l0-192.5l-30.5,0l0,192.5H432.1z"/>
		<path class="st8" d="M470.7,549.6L440,375.5c-2.7-15.5-17.6-28.1-33-28.1H290.3c-3.5-0.1-6.9,0.6-10,2c-3.2,1.4-6,3.5-8.2,6.1
			c-4.5,5.3-6.2,12.4-4.8,20l30.7,174.1H470.7z M390.7,476.8c2.9,0.1,5.7,1.2,7.9,3c2.2,1.9,3.7,4.4,4.2,7.3c0.3,1.3,0.3,2.6,0,3.8
			c-0.3,1.3-0.9,2.4-1.7,3.4c-0.8,1-1.9,1.8-3.1,2.3c-1.2,0.5-2.5,0.8-3.8,0.7h-51c-2.9-0.1-5.7-1.2-7.9-3c-2.2-1.9-3.7-4.4-4.2-7.3
			c-0.2-1.3-0.2-2.6,0.1-3.9c0.3-1.3,0.9-2.5,1.8-3.5c0.8-1,1.9-1.7,3-2.2c1.2-0.5,2.4-0.8,3.7-0.7H390.7z"/>
		<path class="st9" d="M470.7,549.6l-7.6-42.9l-168.6,23.7l3.4,19.2H470.7z"/>
		<path class="st8" d="M507.3,733.7v0.8c0,8.2-6.6,14.8-14.8,14.8h-152c-8.2,0-14.8-6.6-14.8-14.8v-0.8c0-8.2,6.6-14.8,14.8-14.8
			h152C500.7,718.9,507.3,725.6,507.3,733.7z"/>
		<path class="st7" d="M502.8,775.4c2.9-2.9,4.5-6.7,4.5-10.8c0-3-0.9-5.9-2.6-8.5c-1.7-2.5-4-4.5-6.8-5.6c-2.8-1.1-5.8-1.4-8.8-0.9
			c-2.9,0.6-5.6,2-7.8,4.2c-2.1,2.1-3.6,4.8-4.2,7.8c-0.6,2.9-0.3,6,0.9,8.8c1.1,2.8,3.1,5.2,5.6,6.8c2.5,1.7,5.5,2.6,8.5,2.6
			C496,779.8,499.9,778.2,502.8,775.4z"/>
		<path class="st7" d="M416.5,779.9c4,0,7.9-1.6,10.8-4.5c2.8-2.9,4.5-6.7,4.5-10.8c0-3-0.9-5.9-2.6-8.5c-1.7-2.5-4.1-4.5-6.8-5.6
			c-2.8-1.1-5.8-1.4-8.8-0.9c-2.9,0.6-5.7,2-7.8,4.2c-2.1,2.1-3.6,4.8-4.2,7.8c-0.6,2.9-0.3,6,0.9,8.8c1.1,2.8,3.1,5.2,5.6,6.8
			C410.5,779,413.5,779.9,416.5,779.9L416.5,779.9z"/>
		<path class="st7" d="M351.7,775.4c2.8-2.9,4.5-6.7,4.5-10.8c0-3-0.9-5.9-2.6-8.5c-1.7-2.5-4-4.5-6.8-5.6c-2.8-1.1-5.8-1.4-8.8-0.9
			c-3,0.6-5.7,2-7.8,4.2c-2.1,2.1-3.6,4.8-4.2,7.8c-0.6,2.9-0.3,6,0.9,8.8c1.2,2.8,3.1,5.2,5.6,6.8c2.5,1.7,5.4,2.6,8.5,2.6
			C345,779.8,348.9,778.2,351.7,775.4z"/>
		<path class="st8" d="M614.9,552.5v0.9c0,8.2-6.6,14.8-14.8,14.8H444.9c-8.2,0-14.8-6.6-14.8-14.8v-0.9c0-8.2,6.6-14.8,14.8-14.8
			h155.3C608.3,537.7,614.9,544.4,614.9,552.5z"/>
		<path class="st8" d="M484.4,552.5v0.9c0,8.2-6.6,14.8-14.8,14.8H298.1c-8.2,0-14.8-6.6-14.8-14.8v-0.9c0-8.2,6.6-14.8,14.8-14.8
			h171.5C477.8,537.7,484.4,544.4,484.4,552.5z"/>
		<path class="st10" d="M296.5,535.5h171.7"/>
	</g>
</g>
<g>
	<defs>
		<rect id="SVGID_00000146484025960011791010000001389325597188924339_" x="188" width="488.8" height="528.2"/>
	</defs>
	<clipPath id="SVGID_00000028324587221525954920000004429764150116302244_">
		<use xlink:href="#SVGID_00000146484025960011791010000001389325597188924339_"  style="overflow:visible;"/>
	</clipPath>
	<g style="clip-path:url(#SVGID_00000028324587221525954920000004429764150116302244_);">
		<path class="st12" d="M636.8,676.9l0.3-0.2c-1.1-13-1.1-27.5-1.1-39.8l-0.1-9.1l-17.5-51.4l-59.9,3.2l-22,41.9l0.9,15.4
			c1.7,21.8,4.5,43.6,8.2,64.2l59.8,26.6L636.8,676.9z"/>
		<path class="st12" d="M501.9,676.4V676c0.3-13,4.3-40,5.6-51.4l3.2-21.1h-95.9l-10.9,23.2l0.1,10.2c0.6,20.9,2,42.7,5.2,63.8h0.6
			h0.3c25.1,9.7,48.9,26.8,48.9,26.8L501.9,676.4z"/>
		<path class="st13" d="M636.4,605.1c0,8.4,0,16.8-0.1,24.9c0,0.7-0.5,1.2-1.2,1.3c-0.8,0.1-1.5,0.1-2.2,0.1c-11.9,0-22-7.4-26-17.8
			c-0.5-1.1-2.1-1.1-2.6,0c-4,10.4-14.1,17.8-26,17.8c-11.9,0-22-7.4-26-17.8c-0.5-1.1-2.1-1.1-2.6,0c-4,10.4-14.1,17.8-26,17.8
			c-11.9,0-22-7.4-26.1-17.8c-0.5-1.1-2.1-1.1-2.6,0c-4,10.4-14.2,17.8-26,17.8c-11.9,0-22-7.4-26.1-17.8c-0.5-1.1-2.1-1.1-2.6,0
			c-4,10.4-14.2,17.8-26.1,17.8c-3.4,0-6.7-0.6-9.7-1.7c-0.5-0.2-0.9-0.7-0.9-1.2c-0.1-7.2-0.2-14.2-0.2-20.7
			c0-31.7,1.4-54.6,3.6-68.1c0.2-0.9-0.5-1.6-1.3-1.6h-30.1c-40.8,0-72.9-36.3-67-76.8c6.3-43.4,30.3-68.1,31.2-69
			c0.1-0.1,0.1-0.1,0.1-0.1l2.4-2.8c0.3-0.3,0.7-0.5,1-0.5l133.3,2.9l0.2,0.4c1.1,0.4,111.3,27.2,146.5,88.2
			C638,505.6,637.1,556.2,636.4,605.1z"/>
		<path class="st14" d="M563.3,426.6c0,0-100.7-2.9-166.8,7.2c-63.5,9.6-87.9,27.5-87.9,27.5c6.4-44.2,31.2-69,31.2-69l2.9-3.2
			l134,2.9l0.2,0.4C477.5,392.4,521.9,403.2,563.3,426.6z"/>
		<path class="st14" d="M407.3,537.9H440c-18.9,25.3-36.5,61.1-36.5,61.1C403.6,570.7,405,550,407.3,537.9z"/>
		<path class="st15" d="M408.1,538.1H440"/>
		<path class="st12" d="M636.7,331.4c0,0.1,0.1,0.1,0.2,0.1c18.3-5.4,81.8-41.3,78.4-53.6c-0.8-3.3-5.4-5.2-9.2-4.9
			c-0.2,0-0.3-0.3-0.1-0.4c14-8.7,14.7-19.1,8.5-22.2c-0.1-0.1-0.2-0.2-0.1-0.3c1.8-3.8,0.9-7.4-0.5-9.3c-1.9-2.8-6.5-2.8-8-2.5
			c-0.1,0-0.2-0.1-0.2-0.3c2.4-10.5-13.2-6.6-13.2-6.6c-9.9,2.8-21.1,9.3-32.5,15.3c-0.2,0.1-0.4-0.1-0.3-0.3c1.9-3,9-15.8,1.1-16.9
			c-8.3-1.1-43.1,26.1-64.8,45.2c-0.1,0.1-0.1,0.2,0,0.3l6.3,6.4l25.8,41.8L636.7,331.4z"/>
		<path class="st12" d="M462.7,207.3l-0.3-15.6c10.1,2.1,25.3,1.5,33-8.4c7.2-9.1,5.9-23.1,2.7-42.6c-0.8-3.7-1.3-9.2-1.8-14.7
			c-1.2-12.5-3.2-27.7-9.8-36.5c-10.2-13.6-27.6-13.7-49-13.7c-1.7,0-3.1-2.4-4.8-2.2c-24.8,1.4-44.7,18.3-44,42.1
			c0.3,11.1,1.8,31.9,3.3,57.8c0.5,7.9,1.8,34.9,1.8,34.9L462.7,207.3z"/>
		<path class="st16" d="M446.7,186.3c7.7,3.4,13.3,4.9,15.2,5.2c0.4,0.1,0.5,0.2,0.5,0.6l0.3,16.3c0,0.8-0.8,1.1-1.2,0.4l-15.7-21.4
			C445.2,186.8,446,186,446.7,186.3z"/>
		<path class="st17" d="M429.1,159.6l-9-3.9"/>
		<path class="st17" d="M462.6,191.9c-5-1.2-10.5-2.9-16-5.5"/>
		<path class="st17" d="M477.7,145.4l0.7,2.6c0.5,1.3,0,2.9-1,3.9l-0.4,0.4"/>
		<path class="st17" d="M479.9,163.3c-1.6,1.1-6.9,1.3-9.9-2.4"/>
		<path class="st7" d="M459.2,140.6c0-1.6,1.3-3,3-3c1.6,0,3,1.3,3,3c0,1.6-1.3,3-3,3C460.6,143.6,459.2,142.3,459.2,140.6z"/>
		<path class="st7" d="M484.6,137.7c0-1.6,1.3-3,3-3c1.6,0,3,1.3,3,3c0,1.6-1.3,3-3,3C485.9,140.6,484.6,139.3,484.6,137.7z"/>
		<path class="st2" d="M415.9,392.3H477c0,0,19.7,5.2,44.7,14.6c60.8,9.2,125.1-79.3,125.1-79.3L599,271.8l-60.1,46.8
			c0,0-30.9-94.6-75.8-105.5l-76.4-0.6c-23.1,0-44.8,11.4-58.6,29.9c-21,28.2-35.7,73.2-35.7,119.4c0,15,5.2,27.5,15,36.1
			c9.9,8.4,23.8,13,40.6,13C368.1,410.7,391.6,404.4,415.9,392.3z"/>
		<path class="st18" d="M496,345l6.2,55c-15-5-25.2-7.6-25.2-7.6l10.3-58.8C492.1,335.6,495.3,340,496,345z"/>
		<path class="st4" d="M464.6,230.9c-6.1-13.8-21.1-20.5-21.3-20.7l-0.2-0.2l-0.2,0.2c0,0.2-5.2,15.8,1,29.7
			c6.1,13.8,21.5,20.9,21.5,20.9S470.8,244.7,464.6,230.9z"/>
		<path class="st4" d="M441.2,246.7c7.4-16.9,1.5-36.2,1.5-36.5l-0.2-0.2l-0.2,0.2c-0.2,0.2-18.5,8.6-26.2,25.7
			c-7.4,16.9-1.3,36.6-1.3,36.6S433.6,263.8,441.2,246.7z"/>
		<path class="st4" d="M462.7,196.8l-70.5-0.1v1.4c0.2,5.2,0.2,11.6,0.2,14.7v0.2l70.9,0.1L462.7,196.8z"/>
		<path class="st19" d="M443.7,238.2c2.2-10.5,0.6-20.4-0.5-25"/>
		<path class="st13" d="M396.7,369.6c0-5,4.1-9.1,9.1-9.1c5,0,9.1,4.1,9.1,9.1c0,5-4.1,9.1-9.1,9.1
			C400.8,378.7,396.7,374.6,396.7,369.6z"/>
		<path class="st20" d="M365.3,334.3l9.3-31.6"/>
		<path class="st20" d="M476.8,391.9l13.2-73.3"/>
		<path class="st18" d="M406.9,326.9c-26.6-3.9-22.5-22.7-30.5-29.8l-12.4,39.5C363.9,336.6,386.8,330.2,406.9,326.9z"/>
		<path class="st12" d="M503.9,390.5c1.5,0,2.8-0.3,3.5-1c0.8-0.8,1.1-1.5,1.1-2.6c-0.2-5.1-13.2-14.1-20.1-18.6
			c-0.1-0.1,0-0.2,0.1-0.2c7.8,3.5,24,9.9,34.7,9.9c5.7,0,9.4-1.8,10.5-5.7c0.1,0,0.3,0,0.5,0c1.8,0,6.2-0.3,7.7-3.3
			c1.2-2.2,0.7-5.4-2-9.6v-0.1c0.4-0.6,1.5-3.2,0.7-6.4c-1-3.5-4-6.8-9.2-9.6c-14.8-8.1-33.9-17.1-69.5-21.1
			c-3.5-0.3-7.5-0.7-11.6-0.7c-7.3,0-15.8,0.7-25,1.8l11.2,57.1h0.2c0,0,2.9,0.5,7.2,0.5c6.7,0,16.6-1.2,25.2-6.8h0.1
			C471.8,376,493.8,390.1,503.9,390.5z"/>
		<path class="st20" d="M425.3,323.3l-18.4,3.6c-26.8,4.7-52.4,12.3-52.4,12.3"/>
		<path class="st17" d="M540,359.7c-17.5-10-36.3-17.4-55.6-22.1"/>
		<path class="st17" d="M533.7,372.3c-14.7-7.4-44.3-18.9-52.7-21.1"/>
		<path class="st7" d="M350.5,61c0-17.7,14.3-32.1,32-32.1c17.7,0,32.1,14.4,32.1,32.1c0,17.7-14.3,32.1-32.1,32.1
			C364.8,93,350.5,78.7,350.5,61z"/>
		<path class="st7" d="M299.8,300.8c0.4,0.2,0.8,0,0.9-0.4c12.2-36.2,21.4-49.3,24.7-54.9c0.2-0.3,0.6-0.4,0.9-0.2
			c10.7,6,26,7.8,34.8,7.8c20,0,35.6-6,46.2-18c19.1-21.3,16.3-55.7,15.7-59.6c0-0.2-0.1-0.4-0.3-0.5c-2.6-1.5-23.7-14.2-18.3-30.4
			v-0.1c7.2-14.3,23.5-5.1,27.2-2.7c0.4,0.3,0.9,0.1,1-0.4c1.2-6.3,0.9-11.9-1.4-18.3c-0.2-0.5,0.2-1,0.7-0.9
			c1.9,0.3,3.3,0.4,5.1,0.4c10.3,0,13.5-3.9,15.1-7.2c1.8-3.3,1.3-7.8-1-11.9c-0.3-0.5,0.3-1.1,0.9-0.9c10.8,5,23.4,5.8,29.9,4.9
			c7.3-1,10.2-3.9,10.9-4.8c0.1-0.2,0.2-0.4,0.1-0.6c-1-3.9-3.2-8.3-3.2-8.3s-1.8-3.4-2.9-4.6c-10.2-13.6-27.7-21.1-49.1-21.1
			c-1.7,0-3.3,0-5.1,0.2c-24.8,1.3-44.5,21.8-43.9,45.7c0.2,6.3,0.6,23.8,1.2,36.4c0.1,0.5-0.4,0.8-0.9,0.6
			c-11.5-5.4-22.2-8.1-32.4-8.1c-26.6,0-45,19.9-46.1,49.3c0,0.3-0.2,0.5-0.5,0.6c-5.4,1-41.2,9.2-46.8,42.9
			C257.1,278.6,294.5,298.4,299.8,300.8z"/>
		<path class="st21" d="M409.4,76c-5.1,3.2-9.5,7.4-12.9,12.3"/>
		<path class="st17" d="M662.4,263.3c12.4-6.6,43.2-25.2,43.2-25.2"/>
		<path class="st17" d="M668.9,276.6c0,0,31.9-15.8,45.4-26.5"/>
		<path class="st17" d="M676.9,288.8c0,0,22.1-11.3,29.2-16.4"/>
		<path class="st17" d="M633.8,297c10.8-9.3,13.9-31.4,13.9-31.4s8.6-12.6,12-19.2"/>
		<path class="st4" d="M551.2,759.8l0.3,1.1l-130.8,0.3c-7.4-26.9-11.6-60.9-11.6-60.9h0.4c31.2,0,49.2,10.3,52.1,12.1l-3.3-21.5
			c-1.1-7.1,3.9-13.8,10.8-15c0.7-0.2,1.3-0.2,2-0.2h31v0.4c-0.3,21,1.6,34.4,7.5,42.5c7.4,10.3,19.1,18.3,26.3,24.5
			C539.9,746.8,546.6,752.5,551.2,759.8z"/>
		<path class="st13" d="M556.9,779.2l-131.5,0.2c0,0-3-10.5-5.2-19.8h130.9C554,763.7,556.9,772.5,556.9,779.2z"/>
		<path class="st4" d="M693.6,759.2c0.4,0.6-0.2,1.1,0.1,1.7H560.4c-2.5-7.4-4.9-15.4-7-23.3l-0.1-0.5c-3-11.9-5.6-24.1-7.8-36.3
			c1.5-0.2,3-0.2,4.6-0.2c31.2,0,49.2,10.3,52.3,12.1l-3.3-21.5c-1-7,3.9-13.7,10.8-14.9c0.7-0.2,1.3-0.2,2-0.2h25.3l0.1,0.7
			c1.9,20.1,5,33.6,10.8,41.7c7.2,10.1,18.4,16.1,26.3,21.9C684.4,748,690.1,753.5,693.6,759.2z"/>
		<path class="st13" d="M699,779.3l-131.9,0.2l-0.1-0.2c-2.4-6-5-13.4-7.1-19.7l133.5-0.5C694.8,761.4,698.6,770.3,699,779.3z"/>
		<path class="st19" d="M478.8,759.1l-17.2-46.6"/>
		<path class="st19" d="M618.9,758.8l-16.4-46.1"/>
		<path class="st19" d="M492.8,724.6l17.2-7.2"/>
		<path class="st19" d="M504.5,738.4l13.6-10.9"/>
		<path class="st19" d="M631.5,724.6l17.2-7.2"/>
		<path class="st19" d="M643.2,738.4l13.5-10.9"/>
		<path class="st20" d="M535.6,337.6l3.2-19"/>
		<path class="st21" d="M311.2,232c0,0,5,8,14.6,13.2"/>
		<path class="st21" d="M389.9,151.8l1,17.8"/>
		<path class="st21" d="M324.2,191.9c-4-0.1-8.9,0.1-13.7,1.1"/>
		<path class="st20" d="M436.4,380.3l-20.5,12"/>
	</g>
</g>
<g>
	<path class="st7" d="M435.5,396c1,0.3,2,0.5,3.1,0.5l257.4-0.1c6.5,0,12.2-4.2,14.2-10.3l1.1-3.3l30.7-97.2
		c0.6-1.8,0.9-3.5,0.9-5.4c0-9.7-8-17.6-17.7-17.6h-143c-7.8,0-14.5,5-16.8,12.4l-34.2,107.8H428.6C426.9,388.3,430,394.3,435.5,396
		z"/>
	<path class="st3" d="M637.2,352.7c-5.7-4.5-18.6-29.9-12-35.2c1.2-0.9,2.5-1.4,3.9-1.4c7.4,0,15.3,12.7,15.8,11.8
		c1.2-0.6,15.6-11.8,22.7-11.8c1.5,0,2.5,0.5,3.2,1.4c3.9,5.3-22.7,28.2-30.9,35.2l-0.1,0.1c-0.3,0.3-0.7,0.5-1.2,0.5
		C638.2,353.2,637.7,353,637.2,352.7z"/>
	<path class="st3" d="M646.2,315.4c-1.8-0.6-1.9-5.3-0.2-10.4c1.6-4.9,4-8.6,5.8-8.6c0.1,0,0.2,0.1,0.3,0.1
		c1.8,0.6,1.9,5.3,0.2,10.4c-1.6,4.9-4,8.6-5.8,8.6C646.4,315.5,646.3,315.5,646.2,315.4z"/>
</g>
<g>
	<path class="st22" d="M111.2,528.2h27V409.3h-27V528.2z"/>
	<path class="st22" d="M769.3,528.2h27V409.3h-27V528.2z"/>
	<path class="st22" d="M834.5,396.4c1.6,0.6,3.1,1.5,4.4,2.7c1.3,1.2,2.2,2.5,2.9,4c0.7,1.5,1,3.1,1,4.8c0,1.6-0.3,3.2-1,4.8
		c-0.7,1.5-1.7,2.9-2.9,4c-1.2,1.2-2.8,2.1-4.4,2.7c-1.6,0.6-3.4,0.9-5.2,0.9H77.2c-1.8,0-3.5-0.3-5.2-0.9c-1.6-0.6-3.1-1.5-4.4-2.7
		c-1.3-1.2-2.2-2.5-2.9-4c-0.7-1.5-1-3.1-1-4.8c0-1.6,0.3-3.2,1-4.8c0.7-1.5,1.7-2.9,2.9-4c1.2-1.2,2.7-2.1,4.4-2.7
		c1.7-0.6,3.4-0.9,5.2-0.9h752.2C831.1,395.5,832.9,395.8,834.5,396.4z"/>
</g>
</svg>
