<?xml version="1.0" encoding="utf-8"?>
<!-- Generator: Adobe Illustrator 26.5.0, SVG Export Plug-In . SVG Version: 6.00 Build 0)  -->
<svg version="1.1" id="Capa_1" xmlns:svgjs="http://svgjs.com/svgjs"
	 xmlns="http://www.w3.org/2000/svg" xmlns:xlink="http://www.w3.org/1999/xlink" x="0px" y="0px" viewBox="0 0 1267 976"
	 style="enable-background:new 0 0 1267 976;" xml:space="preserve">
<style type="text/css">
	.st0{fill:#524473;}
	.st1{fill:#2F2645;}
	.st2{fill:#02FE89;}
	.st3{fill:none;stroke:#02FE89;stroke-width:4;stroke-linecap:round;stroke-linejoin:round;}
	.st4{fill:#891A7C;}
	.st5{fill:#01FD86;}
	.st6{fill:none;stroke:#524473;stroke-width:4;stroke-linecap:round;stroke-linejoin:round;}
	.st7{fill:#EFDCD7;}
	.st8{fill:#FFFFFF;}
	.st9{fill:#FFC930;}
	.st10{fill:#FF9EDD;}
	.st11{fill:#61CCFF;}
	.st12{fill:none;stroke:#515151;stroke-width:4;stroke-linecap:round;stroke-linejoin:round;}
	.st13{fill:none;stroke:#E5E5E5;stroke-width:4;stroke-linecap:round;stroke-linejoin:round;}
	.st14{opacity:0.2;fill:#353535;enable-background:new    ;}
	.st15{fill:none;stroke:#353535;stroke-width:4;stroke-linecap:round;stroke-linejoin:round;}
	.st16{opacity:0.2;fill:#080602;enable-background:new    ;}
	.st17{opacity:0.2;fill:#231F20;enable-background:new    ;}
	.st18{fill:none;stroke:#E2E2E2;stroke-width:4;stroke-linecap:round;stroke-linejoin:round;}
	.st19{fill:#C65A42;}
	.st20{opacity:0.3;enable-background:new    ;}
	.st21{fill:none;stroke:#191919;stroke-width:4;stroke-linecap:round;stroke-linejoin:round;}
	.st22{fill:none;stroke:#000000;stroke-width:4;stroke-linecap:round;stroke-linejoin:round;}
	.st23{opacity:0.3;fill:#222020;enable-background:new    ;}
	.st24{opacity:0.3;fill:#1F1F1E;enable-background:new    ;}
	.st25{fill:#F5EBDD;}
	.st26{fill:none;stroke:#1F1F1E;stroke-width:4;stroke-linecap:round;stroke-linejoin:round;}
	.st27{fill:none;stroke:#222020;stroke-width:4;stroke-linecap:round;stroke-linejoin:round;}
	.st28{fill:#231F20;}
	.st29{opacity:0.2;fill:#100F10;enable-background:new    ;}
	.st30{fill:none;stroke:#100F10;stroke-width:4;stroke-linecap:round;stroke-linejoin:round;}
</style>
<g>
	<path class="st0" d="M163.9,105.1l328,1.3c11.1,0,14.1,1.1,14.1,12l5.9,15.8V371c0,10.8-9,19.6-20.1,19.6H163.9
		c-11.1,0-20.1-8.8-20.1-19.6V134.2l5.4-15.8C149.2,107.6,152.8,105.1,163.9,105.1z"/>
	<path class="st1" d="M163.9,98.8h328c11.1,0,20.1,8.8,20.1,19.6v15.8H143.8v-15.8C143.8,107.6,152.8,98.8,163.9,98.8z"/>
	<path class="st2" d="M172.1,123.1c3.5,0,6.3-2.7,6.3-6.1s-2.8-6.1-6.3-6.1s-6.3,2.7-6.3,6.1S168.6,123.1,172.1,123.1z"/>
	<path class="st2" d="M192.4,123.1c3.5,0,6.3-2.7,6.3-6.1s-2.8-6.1-6.3-6.1s-6.3,2.7-6.3,6.1S189,123.1,192.4,123.1z"/>
	<path class="st2" d="M212.7,123.1c3.5,0,6.3-2.7,6.3-6.1s-2.8-6.1-6.3-6.1s-6.3,2.7-6.3,6.1S209.3,123.1,212.7,123.1z"/>
	<path class="st3" d="M281.6,116.8H374"/>
</g>
<g>
	<path class="st4" d="M453.8,151.3l427.5,1.8c17.1,0,15.8,3.3,15.8,20.4l16.2,31.7v300.5c0,17.1-13.8,30.9-30.9,30.9h-430
		c-17.1,0-30.9-13.8-30.9-30.9V205.1l14.8-28.5C436.3,159.5,436.8,151.3,453.8,151.3z"/>
	<path class="st5" d="M452.4,141.8h430c17.1,0,30.9,13.8,30.9,30.9v32.4H421.5v-32.4C421.5,155.6,435.3,141.8,452.4,141.8z"/>
	<path class="st6" d="M867.8,187.3c7.5,0,13.5-6,13.5-13.5c0-7.4-6-13.5-13.5-13.5c-7.4,0-13.5,6-13.5,13.5
		C854.3,181.2,860.4,187.3,867.8,187.3z"/>
	<path class="st6" d="M853.4,188.2l4.9-4.9"/>
</g>
<g>
	<path class="st7" d="M354.2,334.1h-90.7c-5,0-9.1-4.1-9.1-9.1v-63.8c0-5,4.1-9.1,9.1-9.1H288c3.2,0,6.2,1.7,7.8,4.5l2.8,4.8
		c1.6,2.8,4.6,4.5,7.8,4.5h47.8c5,0,9.1,4.1,9.1,9.1v50.1C363.4,330.1,359.3,334.1,354.2,334.1C354.3,334.1,354.3,334.1,354.2,334.1
		z"/>
	<path class="st8" d="M432.6,199.6h-55.2c0,0-6.4,32.6,12.8,49.9h55.2C426.2,232.2,432.6,199.6,432.6,199.6z"/>
	<path class="st9" d="M355.3,171.4h-55.2c0,0-6.4,32.6,12.8,49.9h55.2C348.8,204,355.3,171.4,355.3,171.4z"/>
</g>
<g>
	<path class="st0" d="M882.2,288.2h301.1c2.8,0,5.7,0.6,8.3,1.6c2.6,1.1,5,2.7,7,4.7s3.6,4.4,4.7,7s1.7,5.4,1.7,8.3v233.1
		c0,2.8-0.6,5.7-1.7,8.3s-2.7,5-4.7,7s-4.4,3.6-7,4.7c-2.6,1.1-5.4,1.7-8.3,1.7H882.2c-2.8,0-5.7-0.6-8.3-1.7c-2.6-1.1-5-2.7-7-4.7
		s-3.6-4.4-4.7-7c-1.1-2.6-1.6-5.4-1.6-8.3V309.8c0-2.9,0.6-5.7,1.6-8.3c1.1-2.6,2.7-5,4.7-7s4.4-3.6,7-4.7
		C876.5,288.7,879.3,288.2,882.2,288.2L882.2,288.2z"/>
	<path class="st7" d="M909.4,373h94c2.9,0,5.6,1.1,7.7,3.2c2,2,3.2,4.8,3.2,7.7l0,0c0,2.9-1.2,5.6-3.2,7.7s-4.8,3.2-7.7,3.2h-94
		c-2.9,0-5.6-1.1-7.7-3.2c-2-2-3.2-4.8-3.2-7.7c0-2.9,1.1-5.6,3.2-7.7C903.8,374.1,906.6,373,909.4,373L909.4,373z"/>
	<path class="st10" d="M909.4,417.8h55c2.9,0,5.6,1.1,7.7,3.2c2,2,3.2,4.8,3.2,7.7l0,0c0,2.9-1.2,5.6-3.2,7.7c-2,2-4.8,3.2-7.7,3.2
		h-55c-2.9,0-5.6-1.2-7.7-3.2c-2-2-3.2-4.8-3.2-7.7l0,0c0-2.9,1.1-5.6,3.2-7.7C903.8,419,906.6,417.8,909.4,417.8L909.4,417.8z"/>
	<path class="st11" d="M1000.6,417.8h17.3c2.9,0,5.6,1.1,7.7,3.2c2,2,3.2,4.8,3.2,7.7l0,0c0,2.9-1.1,5.6-3.2,7.7
		c-2,2-4.8,3.2-7.7,3.2h-17.3c-2.9,0-5.6-1.2-7.7-3.2c-2-2-3.2-4.8-3.2-7.7l0,0c0-2.9,1.2-5.6,3.2-7.7
		C994.9,419,997.7,417.8,1000.6,417.8L1000.6,417.8z"/>
	<path class="st10" d="M909.4,462.7h13.5c2.9,0,5.6,1.2,7.7,3.2c2,2,3.2,4.8,3.2,7.7c0,2.9-1.1,5.6-3.2,7.7c-2,2-4.8,3.2-7.7,3.2
		h-13.5c-2.9,0-5.6-1.1-7.7-3.2c-2-2-3.2-4.8-3.2-7.7l0,0c0-2.9,1.1-5.6,3.2-7.7C903.8,463.8,906.6,462.7,909.4,462.7z"/>
	<path class="st11" d="M959.1,462.7h81c2.9,0,5.6,1.2,7.7,3.2c2,2,3.2,4.8,3.2,7.7l0,0c0,2.9-1.2,5.6-3.2,7.7c-2,2-4.8,3.2-7.7,3.2
		h-81c-2.9,0-5.6-1.1-7.7-3.2c-2-2-3.2-4.8-3.2-7.7l0,0c0-2.9,1.2-5.6,3.2-7.7C953.5,463.8,956.2,462.7,959.1,462.7z"/>
	<path class="st8" d="M1076.2,462.7h69.4c2.9,0,5.6,1.2,7.7,3.2c2,2,3.2,4.8,3.2,7.7l0,0c0,2.9-1.2,5.6-3.2,7.7
		c-2,2-4.8,3.2-7.7,3.2h-69.4c-2.9,0-5.6-1.1-7.7-3.2c-2-2-3.2-4.8-3.2-7.7c0-2.9,1.2-5.6,3.2-7.7
		C1070.6,463.8,1073.3,462.7,1076.2,462.7L1076.2,462.7z"/>
	<path class="st8" d="M909.4,507.5h43.4c2.9,0,5.6,1.2,7.7,3.2c2,2,3.2,4.8,3.2,7.7s-1.2,5.6-3.2,7.7c-2,2-4.8,3.2-7.7,3.2h-43.4
		c-2.9,0-5.6-1.1-7.7-3.2c-2-2-3.2-4.8-3.2-7.7l0,0c0-2.9,1.1-5.6,3.2-7.7C903.8,508.6,906.6,507.5,909.4,507.5z"/>
	<path class="st10" d="M989,507.5h9.6c2.9,0,5.6,1.2,7.7,3.2c2,2,3.2,4.8,3.2,7.7l0,0c0,2.9-1.1,5.6-3.2,7.7c-2,2-4.8,3.2-7.7,3.2
		H989c-2.9,0-5.6-1.1-7.7-3.2c-2-2-3.2-4.8-3.2-7.7s1.2-5.6,3.2-7.7C983.3,508.6,986.1,507.5,989,507.5z"/>
	<path class="st7" d="M1034.8,507.5h57.4c2.9,0,5.6,1.2,7.7,3.2c2,2,3.2,4.8,3.2,7.7l0,0c0,2.9-1.2,5.6-3.2,7.7
		c-2,2-4.8,3.2-7.7,3.2h-57.4c-2.9,0-5.6-1.1-7.7-3.2c-2-2-3.2-4.8-3.2-7.7s1.1-5.6,3.2-7.7C1029.1,508.6,1031.9,507.5,1034.8,507.5
		L1034.8,507.5z"/>
	<path class="st7" d="M882.2,288.2h301.1c2.8,0,5.7,0.6,8.3,1.6c2.6,1.1,5,2.7,7,4.7s3.6,4.4,4.7,7s1.7,5.4,1.7,8.3v22.7H860.5
		v-22.7c0-2.9,0.6-5.7,1.6-8.3c1.1-2.6,2.7-5,4.7-7s4.4-3.6,7-4.7C876.5,288.7,879.3,288.2,882.2,288.2L882.2,288.2z"/>
	<path class="st12" d="M1173.1,320c5.2,0,9.4-4.2,9.4-9.5s-4.2-9.4-9.4-9.4c-5.2,0-9.4,4.2-9.4,9.4S1167.8,320,1173.1,320z"/>
	<path class="st12" d="M1163,320.6l3.4-3.4"/>
</g>
<g>
	<path class="st5" d="M582.8,372.7l-23.6-18.4l20.5-17.8c0.4-0.3,0.5-0.9,0.3-1.3s-0.8-0.7-1.1-0.5l-24.7,6.5l-3.6-26.7
		c0-0.5-0.5-0.9-0.9-0.9c-0.5-0.1-0.9,0.3-1,0.8l-7.4,27.6l-32.6-9c-0.5-0.1-0.9,0.1-1.1,0.6s-0.1,1.1,0.4,1.4l26.3,17.9l-27,23.4
		c-0.4,0.3-0.5,0.9-0.3,1.4c0.3,0.4,0.8,0.6,1.3,0.4l31.7-13.5l4.4,24.8c0.1,0.5,0.5,0.9,0.9,0.9l0,0c0.5,0,0.8-0.3,0.9-0.8
		l5.9-24.2l29.8,9.5c0.5,0.2,0.9-0.1,1.2-0.6C583.3,373.6,583.2,373,582.8,372.7z"/>
	<path class="st13" d="M526.2,312.2l-5.3-9.5"/>
	<path class="st13" d="M566.3,322.2l3.1-5.1"/>
	<path class="st13" d="M576.3,392l5.3,5.6"/>
	<path class="st13" d="M505.6,353.4h-11.1"/>
</g>
<g>
	<path class="st7" d="M143.8,406.4l22,53.2L113.4,425L143.8,406.4z"/>
	<path class="st14" d="M143.8,406.4l22,53.2L113.4,425L143.8,406.4z"/>
	<path class="st7" d="M143.8,406.4l-47.6,66.4l-82.5-150c-0.2-0.3,0.1-0.6,0.4-0.4L143.8,406.4z"/>
	<path class="st7" d="M216.7,373.5l-72.9,32.9L14,322.5c-0.1-0.1-0.1-0.4,0.2-0.3L216.7,373.5z"/>
	<path class="st15" d="M143.8,406.4l-20,27.9"/>
	<path class="st15" d="M14.1,322.5l129.7,83.9"/>
</g>
<g>
	<path class="st16" d="M1254.5,451.9l-87.6-20c-0.1,0-0.2,0-0.1,0.1l39.6,80.7c0,0.1,0.1,0.1,0.2,0l7.6-25.8c0-0.1,0.1-0.1,0.2,0
		l21.9,17.3h0.1l16.9-21.2v-0.1l-21.9-17.3c0-0.1,0-0.1,0-0.2l23.2-13.1C1254.6,452.1,1254.5,452,1254.5,451.9z"/>
	<path class="st5" d="M1251.8,430.8l-87.6-20c-0.1,0-0.2,0-0.1,0.1l39.6,80.7c0,0.1,0.1,0.1,0.2,0l7.6-25.8c0-0.1,0.1-0.1,0.2,0
		l21.9,17.3h0.1l16.9-21.2v-0.1l-21.9-17.3c0-0.1,0-0.1,0-0.2l23.2-13.1C1251.8,430.9,1251.8,430.8,1251.8,430.8z"/>
</g>
<g>
	<path class="st17" d="M1086.9,179.8l-73.3,42.3l42.4,73.4l73.3-42.3L1086.9,179.8z"/>
	<path class="st11" d="M1071.2,175.5l-73.3,42.3l42.4,73.4l73.3-42.3L1071.2,175.5z"/>
</g>
<g>
	<path class="st11" d="M879.6,107.7c23-23,23-60.4,0-83.4s-60.4-23-83.5,0c-23,23-23,60.4,0,83.4
		C819.2,130.8,856.5,130.8,879.6,107.7z"/>
	<path class="st18" d="M804.8,64.4c0,0,8.7-19.9,33.8-19.9c23.6,0,32.3,19.9,32.3,19.9"/>
	<path class="st18" d="M819.8,77.4c0,0,3.7-14.1,18.9-14.1c13.3,0,17.2,14.1,17.2,14.1"/>
	<path class="st18" d="M832.4,88.7c0,0,5.5-8.8,10.9,0"/>
</g>
<g>
	<path class="st19" d="M455.8,549.5c2.3,0.1,4.6-0.7,6.3-2.4c1.4-1.7,2.1-3.8,3.2-3.3c5.6,0.6,13.1,2.2,20.7,2
		c6.8,0,13.6-1,20.2-2.7c0.6,0.4,3.8,1.9,9,4.3l2-0.7l8.9-62.8l-2.4-1c-22.7-1.9-45.2-2.7-65.4-2.7c-28.6,0-59.7,2.2-60.9,8.3
		c-0.5,1.6-0.2,3.3,0.7,4.7c2.5,3.1,10.4,4.6,30,5.4c-0.7,1.8-3.8,11.5,3.5,16.8c-1.5,2-2.1,4.3-2,6.7c0.2,3,2,5.8,5.1,8.5
		c-1.4,2.1-1.6,4.6-0.7,6.9c1.1,3.2,4.8,7.8,15.8,11.1C451.7,549.2,453.7,549.5,455.8,549.5z"/>
	<path class="st19" d="M670.3,895l3-6.5l0.1-0.2c-1.2-11.5-3.2-23.1-5.6-34.8l-5.3-15.8l-96.5,1.8l-4.9,14.1c2.5,7.5,4,15,4.9,22.8
		l27.8,54.8L670.3,895z"/>
	<path class="st9" d="M676.5,967.6v-0.2c0.1-7,0.2-13.8,0.2-20.6l-3.8-4.4l-140.8,3.8l-1.1,0.5c-0.2,0.1-0.5,0.2-0.6,0.5
		c-3.1,6.1-5.1,14.8-5.1,20.2v0.2H676.5z"/>
	<path class="st7" d="M676.7,946.7v-0.2c0-8.3-0.4-16.3-0.6-24.1c-0.1-3.2-0.4-6.4-0.5-9.4c-0.5-8.5-2.2-24.8-2.2-24.8h-0.2
		c-39.4,1.7-65.3,22.8-70.8,27.8c-0.2,0.1-0.5,0-0.5-0.2l3.6-22.7c0.6-4.2-0.5-8.5-3.3-11.7c-2.7-3.2-6.7-4.9-10.9-4.9h-24.8
		c-0.1,0-0.2,0.1-0.2,0.4c0.1,0.8,0.2,2.4,0.2,2.7c0.1,2.3,0.4,4.4,0.4,6.5c-0.1,25.2-11.2,35.3-22.1,45.2c-4.3,3.8-8,7.8-9.2,9.1
		c-0.2,0.2-0.5,0.6-0.7,0.9l-3.7,5.2c-0.1,0.2,0,0.5,0.2,0.5L676.7,946.7z"/>
	<path class="st11" d="M667.8,853.4c-8.3-43.8-22.7-86.1-42.6-126l48-38.9c32.1,0,66.9,29.2,81.4,11c12.3-15.4,16.4-36.2,11.5-58.1
		c-7.3-31.6-19-51.8-19.1-52.1l-0.1-0.1l-37.6,4.2c-1.4,0.1-137.3,15.8-178.8,65.1c-27.5,32.6-2.5,101.7,17.6,157.3
		c4.9,13.7,9.6,26.7,13,37.6H667.8z"/>
	<path class="st20" d="M591.3,785.9c22.1-16.8,51.6-17.4,51.8-17.4h0.4l-0.1-0.5c-5.4-13.9-11.5-27.6-18.1-40.8h58.1
		c32.1,0,56.8-9.6,71.3-27.9c12.3-15.4,16.4-36.2,11.5-58.1c-7.3-31.6-19-51.8-19.1-52.1L747,589l-37.6,4.2
		c-1.4,0.1-137.3,15.8-178.8,65.1C503,690.9,528,760,548.2,815.7c1.9,5.2,3.7,10.2,5.4,15l0.2,0.6
		C553.7,831.3,575.7,798,591.3,785.9z"/>
	<path class="st21" d="M564,904.9l16.8,7"/>
	<path class="st21" d="M556.8,918.6l11.5,8.6"/>
	<path class="st22" d="M561.1,853.5l106.7-0.1"/>
	<path class="st19" d="M505.3,901.7l0.1-2.7c0.9-2.3,9.1-0.1,10.1-2.7c3.7-10,8.5-24.2,11.1-33.6l-3.2-12.2l-80.3-47L430,815.8
		c-2.5,12.7-4.2,20.4-5.4,23.5l5.7,62.3L505.3,901.7z"/>
	<path class="st7" d="M493.8,947.7c0.2,0,0.4-0.1,0.4-0.4c4.2-9,11.7-26.2,12.7-29c3.1-7.5,8-20.4,8.5-22c0-0.1,0-0.2-0.1-0.2
		l-1.7-0.7c-15.3-7-30.4-9.9-47.3-9.9c-9.5-0.1-18.8,1.1-27.9,3.5c-0.6,0.1-1.1-0.5-0.7-1.1l11.1-15.9c5.2-7.5,3.3-17.9-4.2-23.1
		c-0.7-0.5-1.5-1-2.2-1.4l-17.3-8c-0.4-0.1-0.7,0-1,0.2c-0.2,0.4-0.4,0.9-0.5,1.2c-0.6,1.5-1.4,3-2.1,4.3
		c-11.4,22.5-25.9,26.5-40,30.5c-6.8,2-13.2,3.7-19,7.5l-0.1,0.6l123.3,65.9L493.8,947.7z"/>
	<path class="st21" d="M411.1,860.7l11,13.3"/>
	<path class="st21" d="M398.8,869.8l6,13.1"/>
	<path class="st19" d="M745.7,385.3c3.6-17.6-4.2-39.5-2.6-49.1l5.1-7.4c3-15.4,2.8-36.1-13.8-51.3c-10.6-9.4-10.7-5.8-26.5-5.8
		c-8.3,0-11.6-2.8-19.4,0.1c-9.8,3.7-22.6-1.9-27.3,5.8c-5.1,8-8.5,18.4-12.6,30.7l-0.6,2c-6.2,0.9-9.8,2.6-10.4,4.9
		c-1,4.2,4.1,10.6,4.8,11.6c-6.7,20.7-6.4,32.1,0.7,41.8c4.5,6,13.3,9.7,23.9,9.7c4,0,7.8-0.5,11.5-1.7l-1.7,10.9l69.1-1.7
		L745.7,385.3z"/>
	<path class="st23" d="M692.4,374.9c0.4-0.7,0.4-1.6-0.1-2.3c-0.6-1.1-2-1.5-3.1-0.9l-10.7,4.8l-1.4,8.4l10.7,4.8L692.4,374.9z"/>
	<path class="st9" d="M783.1,621.8c0.6-0.2,57.6-31.5,47.1-87.7c-3-19.1-10.4-44.7-20.3-69.8c-11.5-29.1-22.5-42.3-25.5-45.7
		c-14.8-16.3-37.6-20.2-40.4-20.6c0.1-1,0.6-4,1-6.8c0.4-2.5,0.6-4.7,0.9-5.7v-0.6H674l-2.2,13.5c-47.9,7.5-60.8,33.1-82.4,75.4
		c-2.6,5.1-5.2,10.2-8,15.7c-17.8-2.6-39.1-4.9-57.4-6.5h-0.2l-8.5,64.5l1.5,0.7c14.4,6.8,36.1,17,66.9,18.1c0.6,0,1.2,0,1.8,0
		c28.7,0,53.3-24.9,56.4-28.1l11.3,45.3l0.1,0.7h112.5c1.1,2,13.8,25.4,16.9,37.3l0.1,0.2L783.1,621.8z"/>
	<path class="st24" d="M783.1,622c9.6-5.6,18.3-12.6,25.8-20.7l0.2-0.2l-0.2-0.1c-8.3-5.9-14.8-14.2-18.8-23.6
		c-3-7.3-3.9-16-4.9-23.8c-1.5-11.8-13.1-12.5-13.1-12.5l-6.3,43.1l-0.2,0.4c0.1,0.2,13.8,25.2,17,37.4l0.1,0.2L783.1,622z"/>
	<path class="st25" d="M744.1,416.2c11.2,0,21.2-4.3,27.5-11.8c5.4-6.4,7.7-15.1,6-23.3c-3.4-19.9-23.4-28-25.7-28.9
		c1.5-8.3,2.8-16.6,3.6-21.2l0.1-0.6c3-15.4,8.5-44.2-8.1-59.2c-10.6-9.4-25.8-14.8-41.6-14.8c-8.3,0-16.5,1.5-24.3,4.5
		c-8.5,3.1-15.8,9-20.6,16.8v0.1v0.1c-0.1,19.1,23.6,13.5,22.1,16.2c-11.5,18.5,4.1,34.4,4.7,35.1l0.5,0.7l0.4,0.6
		c1.7-1.4,15.9-12.8,27.9-12.8c5.3,0,9,2.4,11.1,7c9.6,21.7-21,37.9-20.3,37.9c-0.4,1.8-8,41.5,20.4,50.9
		C733.2,415.2,738.7,416.2,744.1,416.2z"/>
	<path class="st26" d="M641.7,538.2l21.2-29.1"/>
	<path class="st26" d="M799.9,546.2l-27.8-5.2"/>
	<path class="st26" d="M581.2,489.4l5.1,21.2"/>
	<path class="st26" d="M523.6,482.9l-8.5,64.5"/>
	<path class="st26" d="M671.7,398.4c4.4-0.2,11.7,0.2,11.7,0.2"/>
	<path class="st27" d="M709.7,339.2l-8.6,6.2"/>
	<path class="st27" d="M662.8,330.5c-2.8,4-7.5,6.2-12.3,6.2"/>
	<path class="st27" d="M678.5,376.5l10.7-4.8"/>
	<path class="st28" d="M660.9,317c-1.7,0-3.1-1.4-3.1-3.1s1.4-3.1,3.1-3.1s3.1,1.4,3.1,3.1S662.6,317,660.9,317z"/>
	<path class="st27" d="M428.4,498.3c9.9-4.9,25.9-6.2,25.9-6.2"/>
	<path class="st27" d="M431.8,515.3c7.6-3.4,24.9-5.9,24.9-5.9"/>
	<path class="st27" d="M434.9,530.5c7-2.6,24.3-5.1,24.3-5.1"/>
	<path class="st21" d="M601.8,915.7l-6.4,31"/>
	<path class="st24" d="M672.3,513.8c1-2.7-0.5-5.8-3.3-6.7c-2.2-0.7-4.7,0-6.1,2c-4.7,6.9-21.2,29.1-21.2,29.1l9.5,37.8L672.3,513.8
		z"/>
	<path class="st11" d="M526.7,862.7c17-64.3,18.3-95.2,18.1-135l179,0.4c19.1,0,35.4-7.4,47.4-21.4c10.6-12.5,16.9-29.4,17.7-47.5
		c1-22.3-6.7-47.9-22.7-75.9l-0.2-0.4l-113,0.6c-1.4,0.2-136.3,24.8-172,61.3c-24.4,25.2-30.2,58.1-38.4,103.8
		c-1.4,7.5-2.7,15.3-4.3,23.4l-1.1,5.7c-2.6,13.8-7.1,38.1-7.1,38.1L526.7,862.7z"/>
	<path class="st9" d="M484.2,966.8c3.2-6.2,5.3-10.1,8.3-16.2l1.5-3.1c0-0.1,0-0.2-0.1-0.4l-131.3-63.9l-0.4,0.2
		c-1.8,1.2-3.3,2.5-4.9,3.9l-0.2,0.2c0,0-6.4,7.5-8.5,12l-0.1,0.2L484,967.3L484.2,966.8z"/>
	<path class="st26" d="M780,486l-7.9,55l-6.2,41.9L653,583.5"/>
	<path class="st22" d="M540.9,795.8c3.6-24.9,3.9-44.8,3.9-68.1l80.7,0.1"/>
	<path class="st22" d="M525.8,706.8l19,20.9"/>
	<path class="st22" d="M430.1,815.8l96.6,46.9"/>
	<path class="st21" d="M437.9,887.8l-16.5,24.1"/>
</g>
<g>
	<path class="st28" d="M757.7,730.5h-27.5v182.9h27.5V730.5z"/>
	<path class="st10" d="M858.4,554.1H752.9c-14,0-27.4,11.4-29.8,25.4L695.3,737h156.4l27.7-157.5
		C881.8,565.5,872.3,554.1,858.4,554.1z"/>
	<path class="st10" d="M675.9,911.5h136.6c7.6,0,13.8,6.2,13.8,13.7c0,7.6-6.2,13.8-13.8,13.8H675.9c-7.6,0-13.8-6.2-13.8-13.8
		C662.2,917.6,668.4,911.5,675.9,911.5z"/>
	<path class="st28" d="M675.9,966.5c7.6,0,13.8-6.2,13.8-13.8s-6.2-13.8-13.8-13.8s-13.8,6.2-13.8,13.8
		C662.2,960.3,668.3,966.5,675.9,966.5z"/>
	<path class="st28" d="M744.3,966.5c7.6,0,13.8-6.2,13.8-13.8s-6.2-13.8-13.8-13.8s-13.8,6.2-13.8,13.8S736.7,966.5,744.3,966.5z"/>
	<path class="st28" d="M812.7,966.5c7.6,0,13.8-6.2,13.8-13.8s-6.2-13.8-13.8-13.8s-13.8,6.2-13.8,13.8S805,966.5,812.7,966.5z"/>
	<path class="st29" d="M702.2,697.2l-7,39.8h156.3l2.9-17L702.2,697.2z"/>
	<path class="st10" d="M578.6,726.1h139.7c7.6,0,13.8,6.2,13.8,13.8s-6.2,13.8-13.8,13.8H578.6c-7.6,0-13.8-6.2-13.8-13.8
		S571,726.1,578.6,726.1z"/>
	<path class="st10" d="M696.6,726.1H851c7.6,0,13.8,6.2,13.8,13.8s-6.2,13.8-13.8,13.8H696.6c-7.6,0-13.8-6.2-13.8-13.8
		S689,726.1,696.6,726.1z"/>
	<path class="st30" d="M697.6,724.2H853"/>
</g>
</svg>
