<?xml version="1.0" encoding="utf-8"?>
<!-- Generator: Adobe Illustrator 26.5.0, SVG Export Plug-In . SVG Version: 6.00 Build 0)  -->
<svg version="1.1" id="Capa_1" xmlns:svgjs="http://svgjs.com/svgjs"
	 xmlns="http://www.w3.org/2000/svg" xmlns:xlink="http://www.w3.org/1999/xlink" x="0px" y="0px" viewBox="0 0 1104 909.1"
	 style="enable-background:new 0 0 1104 909.1;" xml:space="preserve">
<style type="text/css">
	.st0{fill:none;stroke:#FFC930;stroke-width:4;stroke-linecap:round;stroke-linejoin:round;}
	.st1{fill:#61CCFF;}
	.st2{fill:none;stroke:#61CCFF;stroke-width:4;stroke-linecap:round;stroke-linejoin:round;}
	.st3{fill:#FFC930;}
	.st4{fill:#524473;}
	.st5{fill:#2F2645;}
	.st6{fill:#02FE89;}
	.st7{fill:none;stroke:#02FE89;stroke-width:4;stroke-linecap:round;stroke-linejoin:round;}
	.st8{fill:#1F1B30;}
	.st9{fill:#E59763;}
	.st10{fill:#00A2E2;}
	.st11{opacity:0.2;fill:#030202;enable-background:new    ;}
	.st12{fill:#CF5934;}
	.st13{fill:#010005;}
	.st14{opacity:0.2;enable-background:new    ;}
	.st15{fill:none;stroke:#030202;stroke-width:4;stroke-linecap:round;stroke-linejoin:round;}
	.st16{fill:none;stroke:#000000;stroke-width:4;stroke-linecap:round;stroke-linejoin:round;}
	.st17{fill:#C65A42;}
	.st18{opacity:0.3;fill:#222020;enable-background:new    ;}
	.st19{fill:#273141;}
	.st20{fill:#01FD86;}
	.st21{opacity:0.3;enable-background:new    ;}
	.st22{fill:#30242A;}
	.st23{fill:#3C5B66;}
	.st24{fill:none;stroke:#2A4552;stroke-width:4;stroke-linecap:round;stroke-linejoin:round;}
	.st25{fill:#605B5E;}
	.st26{fill:none;stroke:#0DF7B4;stroke-width:4;stroke-linecap:round;stroke-linejoin:round;}
	.st27{fill:none;stroke:#222020;stroke-width:4;stroke-linecap:round;stroke-linejoin:round;}
	.st28{fill:none;stroke:#231F21;stroke-width:4;stroke-linecap:round;stroke-linejoin:round;}
	.st29{fill:#231F20;}
	.st30{fill:none;stroke:#FF9EDD;stroke-width:4;stroke-linecap:round;stroke-linejoin:round;}
</style>
<g>
	<path class="st0" d="M369.4,801.9c13,0,23.5-10.5,23.5-23.5s-10.5-23.5-23.5-23.5s-23.5,10.5-23.5,23.5S356.4,801.9,369.4,801.9z"
		/>
</g>
<g>
	<path class="st1" d="M553.3,693.3l15.9,3.8l-13.5,9.1l4.6,15.7l-14.7-7.1l-11.2,11.8l-1.2-16.3l-15.9-3.8l13.5-9.2l-4.6-15.6
		l14.7,7.1l11.2-11.8L553.3,693.3z"/>
</g>
<g>
	<path class="st2" d="M58.3,314.8c9.9,0,18-8,18-18s-8.1-18-18-18s-18,8.1-18,18S48.4,314.8,58.3,314.8z"/>
</g>
<g>
	<path class="st2" d="M1052.9,173.1c10.1,0,18.2-8.2,18.2-18.2s-8.1-18.2-18.2-18.2s-18.2,8.2-18.2,18.2
		C1034.7,164.9,1042.9,173.1,1052.9,173.1z"/>
</g>
<g>
	<path class="st3" d="M381.9,39.6l20,4.8l-17,11.5l5.8,19.7l-18.5-8.9l-14.1,14.9l-1.5-20.5l-20-4.8l17-11.6l-5.8-19.6l18.5,8.9
		l14.1-14.9L381.9,39.6z"/>
</g>
<g>
	<path class="st4" d="M275.2,145.3l548.8,2.3c18.5,0,23.6,1.9,23.6,20.5l9.9,27v405.2c0,18.5-15,33.6-33.6,33.6H275.2
		c-18.5,0-33.6-15-33.6-33.6V195.1l9-27C250.7,149.6,256.6,145.3,275.2,145.3z"/>
	<path class="st5" d="M275.2,134.6H824c18.5,0,33.6,15,33.6,33.6v27h-616v-27C241.6,149.6,256.6,134.6,275.2,134.6z"/>
	<path class="st6" d="M288.9,176.1c5.8,0,10.5-4.7,10.5-10.5s-4.7-10.5-10.5-10.5s-10.5,4.7-10.5,10.5S283.1,176.1,288.9,176.1z"/>
	<path class="st6" d="M322.9,176.1c5.8,0,10.5-4.7,10.5-10.5s-4.7-10.5-10.5-10.5s-10.5,4.7-10.5,10.5S317.2,176.1,322.9,176.1z"/>
	<path class="st6" d="M356.9,176.1c5.8,0,10.5-4.7,10.5-10.5s-4.7-10.5-10.5-10.5s-10.5,4.7-10.5,10.5S351.2,176.1,356.9,176.1z"/>
	<path class="st7" d="M472.2,165.4h154.6"/>
</g>
<g>
	<path class="st8" d="M38.7,392.4v266.3c0,19.2,15.5,34.7,34.7,34.7h283.4c19.2,0,34.7-15.5,34.7-34.7V392.4
		c0-19.2-15.5-34.7-34.7-34.7H73.4C54.2,357.7,38.7,373.2,38.7,392.4z"/>
	<path class="st4" d="M369.5,405.1c0-7.9-6.4-14.3-14.3-14.3s-14.3,6.4-14.3,14.3s6.4,14.3,14.3,14.3
		C363.2,419.3,369.5,413,369.5,405.1z"/>
	<path class="st4" d="M328.1,405.1c0-7.9-6.4-14.3-14.3-14.3s-14.3,6.4-14.3,14.3s6.4,14.3,14.3,14.3
		C321.7,419.3,328.1,413,328.1,405.1z"/>
	<path class="st4" d="M286.6,405.1c0-7.9-6.4-14.3-14.3-14.3s-14.3,6.4-14.3,14.3s6.4,14.3,14.3,14.3
		C280.2,419.3,286.6,413,286.6,405.1z"/>
</g>
<g>
	<path class="st9" d="M328.7,665.7l9.7,34.4l4.8-0.1h32.2c0,0,34.6,14.3,48.8,16.3c11.5,1.6,13.2-4.6,13.2-4.6
		c17.2,5.5,18.2-5.6,18.2-5.6c14.2-4.1,5.6-15.1,5.6-15.1c7.3-8.5-10.6-22-32.3-31.7c2.8-1.2,4.6-2.9,4.6-4.8
		c0-6.1-21.2-10.2-47.6-13.2c-10.1-1.2-26.5-2.7-43.3-4.3L328.7,665.7z"/>
	<path class="st9" d="M178.8,541.5c17.1-0.2,30.1-15.4,39.6-25.4c0.1-0.1,0.1-0.2,0-0.2c-7.1-2.3-12.7-2.8-13.4-2.9
		c-0.1,0-0.1-0.1-0.1-0.1l-3.2-20.1c0-0.1,0-0.1,0.1-0.1c8.6,3.4,25.4,2.5,32.1-6.9c6.4-8.7,6.4-18.9,0.4-37.7V448
		c0.5-0.6,5.3-6.8,4.3-10.3c-0.7-3.3-8.5-4.2-9.2-4.3c-0.1,0-0.1-0.1-0.1-0.1c-7.7-22.3-9.5-32.6-27.8-39.8
		c-19.6-7.7-44.3-4.3-59.6,9.3c-15.3,13.7-9.7,40.5-7.2,54.1c1.6,7.8,2.9,27.5,6.1,43.9c0.5,3.1,1.7,9.2,1.9,10c0,0,0,0.1-0.1,0.1
		c-5.3,1-10.9,1.9-16.4,3.3c0.1,0,0.2,0,0.2,0C145.6,528.3,163.7,541.6,178.8,541.5z"/>
	<path class="st10" d="M67.7,673.7C74.8,691.9,92,700,114.3,700l56.3-0.2c1.1-0.2,54.3-8.2,67.3-6.9c20.4,2.1,49.7,7.1,49.7,7.1
		h50.9l4.2-63c-27.2-2.6-54.9-4.9-54.9-4.9s-9.2-30.4-24.3-68.8c-12.4-31.2-29.5-42.4-45-47.5c-17.7,19-50.8,28.8-91.9-1.7
		c-0.1,0-0.2,0-0.2,0c-9.4,1.8-22.3,8.5-27.3,12.9c-16.3,14.3-31,44.7-34.2,81.9C64.2,618.5,61.6,657.6,67.7,673.7z"/>
	<path class="st11" d="M187.8,486c4.2,2.2,8.2,4.4,13.7,6.5c0.2,0.1,0.3,0.2,0.3,0.4l1.5,9.8c0.1,0.5-0.5,0.7-0.8,0.4l-15.2-16.3
		C187,486.4,187.4,485.8,187.8,486z"/>
	<path class="st12" d="M131.8,451.7c1,5.6,3.8,19.5,6.3,33.1c0,0.1,0.1,0.1,0.1,0.1c1.2,0.1,17.2,1.3,24-8.4v-0.1
		c-1.4-1.2-24.7-21.6-10.1-37.4c10.9-11.9,30.9,5.9,32.2,7h0.1c0.9-0.9,11.8-11.9,6.1-33.2c0-0.1,0-0.1,0.1-0.1
		c23.1,6.6,29.8-1.5,30.3-2.2v-0.1c-4.8-10.2-10.9-17.8-22.2-22.2c-19.5-7.7-44.3-4.3-59.5,9.3C123.9,411.2,129.2,438,131.8,451.7z"
		/>
	<path class="st13" d="M220.9,436.5c0-1.6-1.3-2.9-2.9-2.9c-1.6,0-2.9,1.3-2.9,2.9s1.3,2.9,2.9,2.9
		C219.6,439.4,220.9,438.1,220.9,436.5z"/>
	<path class="st14" d="M235.2,611.8C235.2,611.8,235.1,611.8,235.2,611.8l-4.8,72.3c0,0.1,0,0.1,0,0.1l7.4,8.8c0.1,0,0.1,0,0.1,0
		c20.2,2.1,49.4,7.1,49.7,7.1h22.7c0.1,0,0.1-0.1,0.1-0.2c-4.9-9-25-9.3-39.9-29.9C253.3,646.1,248.5,612,235.2,611.8z"/>
	<path class="st9" d="M175.5,637.5c-0.2,0-0.3,0.1-0.3,0.2l-4.6,61.8c-0.1,0.2,0.1,0.3,0.2,0.3h22.5c13.6,0,22.2,31.4,30.3,31.4
		c7.8,0,5-15.2,3-19.2c0,0,16.2,35.2,31.3,26.3c0,0,0.1,0,0.2,0c1.3,0.8,12.1,7.1,13.1-7.9c0-0.1,0.2-0.2,0.3-0.2
		c1.5,0.2,9,0.1,3.9-15.2c-1.7-5-8-18.8-14-27c-0.1-0.2,0-0.4,0.2-0.4c2.4-0.3,15.1-2.8,8.7-11c-4.5-5.7-24.2-19.2-46.6-27.3
		C213,645.4,190.7,639.5,175.5,637.5z"/>
	<path class="st14" d="M161.8,636c-14-13.3-7.2-42.2-22.6-43.3c0,0-0.1,0-0.1,0.1l-4.4,40.2c0,0,0,0.1,0.1,0.1
		c12.2,0.7,12,1.9,26.9,3.1C161.8,636.2,161.9,636.1,161.8,636z"/>
	<path class="st15" d="M228.5,459.9c-2.5,1-7.6,0.5-9.3-3"/>
	<path class="st15" d="M201.6,492.6c-4.2-1.8-13.9-6.6-13.9-6.6"/>
	<path class="st16" d="M232.5,651l2.6-39.2"/>
	<path class="st15" d="M243,683.8c0,0,17.2,21.2,28.3,46.6"/>
	<path class="st15" d="M229.9,691.9c0,0,16.2,22.2,28.3,46.6"/>
	<path class="st15" d="M220.1,700.1l6.6,12"/>
	<path class="st15" d="M417.9,668.6l43.3,22.4"/>
	<path class="st15" d="M400.9,679.7l54.8,26.3"/>
	<path class="st15" d="M398.9,696l38.4,15.7"/>
	<path class="st16" d="M139.2,592.7l-4.5,40.4c0,0,29.4,3,40.5,4.6"/>
</g>
<g>
	<path class="st17" d="M1033.1,828.4l6.4-50.1c-2.7-7.1-5.5-13.8-8.5-20.6c-6.1-13.7-13.1-26.8-21-39.4c-2.9-4.6-5.7-9-9.3-14
		l-3.7-1.8l-82,19.8l0.2,0.2c2.7,3.9,5.6,7.8,8.4,11.8c17.7,24.8,37.7,52.6,45.8,74.6L1033.1,828.4z"/>
	<path class="st18" d="M935.1,750.3l0.2-0.3c0.1-0.1,4-7.1,12.5-16.6c11.7-12.9,25.5-23.9,40.9-32.2l-0.2-0.4l-73.3,21.3l1.6,2.4
		c2.8,3.9,4.1,5.6,6.9,9.6c3.7,5.2,7.5,10.6,11.3,15.9L935.1,750.3z"/>
	<path class="st17" d="M809.3,338.2l1.8,5.4l50.4-2.8v-0.2c2.8-13.9,0.7-36.5,1.8-43.5l2.1-1.5c2.3-11.9,4.1-31.2-8.8-42.8
		c-8-7.2-12.8-5-25-5c-6.3-0.1-6,0.2-11.9,2.5c-9,3.4-20.6,1.4-24.6,9.2c-2.8,5.5-5.2,12.2-7.7,19.8l-0.5,1.5c-4.8,0.6-7.5,2-8,3.8
		c-0.7,3.2,3.2,8.1,3.7,8.9c-5.1,15.9-5,24.7,0.5,32.2c3.3,4.7,10.2,7.5,18.4,7.5c3,0.1,6-0.4,8.8-1.3L809.3,338.2z"/>
	<path class="st18" d="M809.3,338.2l5.5,3.6l4.6-10.5c0.3-0.5,0.2-1.1-0.1-1.5c-0.3-0.5-0.8-0.7-1.3-0.7c-0.3,0-0.5,0.1-0.7,0.2
		l-7,2.8L809.3,338.2z"/>
	<path class="st17" d="M852.9,865.5l29.3-51.9c0.2-5.2,0.1-10.4,0.1-15.5c-0.2-14.9-1.3-29.7-3.6-44.5c-0.9-6.2-3.3-18.2-4.8-25.1
		L814,605l-17.4,148.3c2.7,18.2,4.8,33,6.5,45.1c0.4,2.5,1.2,8.3,1.4,15.3L852.9,865.5z"/>
	<path class="st18" d="M808,706.5l46.9,55.6c0.8,0.9,2.3,1.1,3.2,0.3l18.2-14.9c0.6-0.5,1-1.3,0.8-2.2c-0.6-3.4-1.4-7.3-2.1-10.8
		c-0.4-2.1-0.7-4-1.1-5.6c0-0.2-0.1-0.4-0.2-0.6l-56-115.5c-1-2.1-4.2-1.5-4.3,0.9l-5.9,91C807.5,705.3,807.7,706,808,706.5z"/>
	<path class="st19" d="M874.3,879.5L874.3,879.5l0.7-0.7c0-0.1,0-0.1,0-0.1c4.2-21.4,6.4-43,7-64.8v-0.2h-8c-9,0-16.6,6.4-18.3,15.2
		l-3.7,20.3c0,0.1-0.1,0.1-0.2,0l-14.2-26c-3.3-5.9-9.5-9.6-16.3-9.6h-16.8v0.2c0.7,17.4-2.4,30.4-9.2,37.6
		c-5.7,6-14.1,12.7-20.2,17.5c-1.6,1.3-3,2.4-4.2,3.4c-2.3,1.8-4.2,3.9-5.9,6.3l0.5,0.9L874.3,879.5L874.3,879.5z"/>
	<path class="st17" d="M666.5,402.3l36.9-31.4l0.1-1.8c-11.9-12.5-21.8-22.1-29.8-28.9c-9.1-7.5-19.4-13.7-30.2-18.4
		c-10.3-4.5-20.1-7.2-26.1-7.2c-5.6,0-6.8,2.2-6.8,4c0,4,5.7,7,14.5,11.6c1.4,0.8,2.9,1.6,4.5,2.4c-1.1,0.9-5.5,5.1-2.5,11.2
		c-1.7,0.8-3.1,2.2-3.8,3.8c-1,2.2-0.9,4.7,0.3,7.6c-1.6,0.9-2.7,2.4-3,4.3c-0.5,2.6,0.4,7.1,6.6,13.3c2.6,2.6,5,3.9,7.1,3.9
		c3.1,0,4.8-2.7,5.2-3.6c8.2,12,17.7,14.4,18.8,14.6c0.4,0.8,2.4,6.2,6.2,14L666.5,402.3z"/>
	<path class="st20" d="M897.5,514.7c17.9-9.5,33.8-33.8,29.4-62c-1-6.6-2.7-14.2-5-22.2c-2.8-10,3.6-28.1-0.6-38.8
		c-7-17.9-24.6-25-29.7-30.5c-11.5-12.7-28.1-15.5-30.1-15.8c0.3-1.3,1.4-7.1,1.4-7.1h-53.6l-2.1,10.3c-0.1,0-0.2,0-0.3,0h-0.6
		c-0.3,0-0.6,0-1,0c-13.4,0-40.9,6.6-74.5,50.7c-1.4-1.6-13.4-15.3-27.4-30l-0.1-0.1l-39,32.5l0.1,0.1
		c25.9,52.5,52.2,61.7,65.5,62.5c0.6,0.1,1.3,0.1,1.9,0.1c20.5,0,45.9-19.6,48.6-21.7l10.1,47.4l0.3,0.7l84.5,0.6
		c0.8,0.6,11.7,8.4,21.7,23.4L897.5,514.7z"/>
	<path class="st21" d="M897.6,514.6c7.1-3.7,13.8-9.9,19-17.4c0,0-8.4-3.6-15.5-15.1c-3.9-6.2-5.1-14.1-6.2-21.8
		c-1.5-9.9-2.8-19.1-10.1-21.7l-9,51.4l-0.1,1.3C875.8,491.5,897.6,514.6,897.6,514.6z"/>
	<path class="st22" d="M949,418.8c5.2-6.3,7.3-14.7,5.5-22.8c-2.5-12.6-18.5-18.3-20.7-19.1c12.7-16.5,11-36.9,5.3-50.6
		c-11.1-26.5-39.2-30.5-54.9-30.5c-4.5,0-9,0.4-13.6,1l0.1-0.3c2.7-14.2,5.1-34.6-7.1-45.7c-8.1-7.2-19.8-11.3-32-11.3
		c-6.3-0.1-12.7,1.1-18.6,3.4c-8.2,3.1-13.7,8.1-18,16.6v0.1c0,0,2.1,9.3,13.6,9.3c2.4,0,4.7-0.4,7.1-0.9c0.3-0.1,0.5,0.3,0.4,0.5
		c-7.5,12.2,2.5,24.2,2.6,24.3c0,0,10-4.6,18.3-4.6c5.6,0,9.2,2.2,10.6,6.3c5.3,16-18.9,26.9-18.9,26.9l-0.1,0.1
		c-1.1,7.2-1.3,14.6-0.4,22c2.4,19.9,11.9,29.6,19.4,34.3c8.9,5.7,19.3,7.7,29.9,7.8c7.9,0.1,18.3-1.5,25.3-5
		c9.5,20.8,11.2,26.9,16.6,41.7c0.5,1.5,2.5,8,2.5,8s1.1,0.2,2.4,0.2C933.2,430.6,943,425.9,949,418.8z"/>
	<path class="st23" d="M819.4,747.9L819.4,747.9L819,634.4c0-0.1,0.2-0.1,0.2,0l36.4,104.7c0,0.1,0,0.1,0.1,0.1l145.2-35
		c-2.4-3.5-5.2-7.1-8.2-11.2c-3.1-4.2-6.4-8.2-10-12.6c-6.7-8-13.6-16.4-19.4-26.3c-13.5-22.9-20.8-36.9-28.8-59.3
		c-16.1-45.6-27.1-78-58.6-104.8h-0.1h-84.9v0.2c-5.2,20.4-16.1,108.9-3.8,198.1c1.2,8.5,3.5,24.4,6.1,41.6
		c1.2,7.6,2.3,15.5,3.5,23.4L819.4,747.9z"/>
	<path class="st24" d="M807.7,490.1l11.1,144.4"/>
	<path class="st25" d="M871.5,893.5c1.4-4.8,2.7-9.8,3.6-14.7v-0.2H765l-0.1,0.1c-3.1,4.3-4.7,9.5-4.6,14.8v0.2L871.5,893.5z"/>
	<path class="st25" d="M1058.8,849.6L1058.8,849.6c-0.6-5.2-1.5-10.4-2.6-15.4l-0.7-0.4l-99.8,43.4l-0.5,0.5
		c-1.2,5.3-0.5,10.8,1.6,15.7L1058.8,849.6z"/>
	<path class="st19" d="M1056.2,834.3c0.1-0.1,0.1-0.2,0.1-0.3c-4.2-18.9-9.7-37.5-16.5-55.6l-0.1-0.2l-5.3,2.4
		c-7.9,3.4-12.5,11.8-11,20.3l3.1,18.1c0,0.2-0.2,0.3-0.4,0.2l-22-15.7c-5.3-3.8-12.3-4.6-18.3-2l-16.1,7.1
		c-0.1,0.1-0.1,0.2-0.1,0.3c4.9,13.3,5.7,23.7,2.5,31.9c-3.2,8-8.6,18.3-12.1,25c-0.7,1.4-1.5,2.8-2,3.9c-1.3,2.5-2.2,5.1-2.8,7.7
		c-0.1,0.2,0.1,0.4,0.3,0.3L1056.2,834.3z"/>
	<path class="st26" d="M819.5,839.9l-16.8-3.5"/>
	<path class="st26" d="M812.3,858.4L797.9,848"/>
	<path class="st26" d="M847.7,878.6L852,849"/>
	<path class="st26" d="M1032.5,844.7l-6.2-25.8"/>
	<path class="st26" d="M987.7,830.8l-13.8-1.3"/>
	<path class="st26" d="M986.1,846.2l-14-5.3"/>
	<path class="st16" d="M790.8,490.1h84.9l9-51.4"/>
	<path class="st16" d="M880,464.5l16.4,2.9"/>
	<path class="st16" d="M721.9,411.3l9-12"/>
	<path class="st16" d="M799.6,424.9l-19,17.8"/>
	<path class="st27" d="M651.4,338.1c-6.8-3.1-14.5-5-21.9-5.5"/>
	<path class="st27" d="M646.8,348c0,0-11.1-3.7-19.9-4.2"/>
	<path class="st27" d="M641.4,358.9c-1.7-1.5-13-4.6-18-3.7"/>
	<path class="st27" d="M817.3,329.3c0,0-2.4,0.9-7,2.8"/>
	<path class="st27" d="M824.1,306.4l6.3-3.6"/>
	<path class="st28" d="M912.7,373.3c0,0-0.8,3.9-9.8,7.5"/>
	<path class="st28" d="M926.2,384.2c2.6-2.2,5.4-4.6,7.6-7.2"/>
	<path class="st28" d="M867.5,310.9l3.3-14.1"/>
	<path class="st27" d="M787.9,301.9c0,0,5.4,0,8.1-3.6"/>
	<path class="st29" d="M794.2,284.3c0-1.2,1-2.3,2.3-2.3c1.2,0,2.3,1,2.3,2.3c0,1.2-1,2.3-2.3,2.3
		C795.2,286.5,794.2,285.5,794.2,284.3z"/>
	<path class="st21" d="M786.8,471.7l0.4-0.7c0.1-0.3,10.4-20.3,13.2-34.3c0.3-1.3,0-2.5-0.8-3.4c-0.8-1-1.9-2.3-3.2-2.3
		c-0.9,0-3.3,0.3-4.1,0.8l-11.7,10.9L786.8,471.7z"/>
</g>
<g>
	<path class="st30" d="M983.3,343.2l104.2,16.5"/>
	<path class="st30" d="M878,248.5l148.8-59.2"/>
	<path class="st30" d="M844.5,151.5L894,84.1"/>
</g>
</svg>
